<svg xmlns="http://www.w3.org/2000/svg" xmlns:xlink="http://www.w3.org/1999/xlink" width="1024" zoomAndPan="magnify" viewBox="0 0 768 767.999994" height="1024" preserveAspectRatio="xMidYMid meet" version="1.2"><defs><clipPath id="e9bd002e5d"><path d="M 367 250 L 459.332031 250 L 459.332031 416.847656 L 367 416.847656 Z M 367 250 "/></clipPath><clipPath id="d67cb30b37"><path d="M 356.160156 428.609375 L 461.910156 428.609375 L 461.910156 534.359375 L 356.160156 534.359375 Z M 356.160156 428.609375 "/></clipPath></defs><g id="a74d9f1adf"><g clip-rule="nonzero" clip-path="url(#e9bd002e5d)"><path style=" stroke:none;fill-rule:nonzero;fill:#000000;fill-opacity:1;" d="M 419.730469 257.824219 L 419.730469 267.386719 C 426.117188 268.054688 431.558594 269.3125 435.996094 271.28125 C 440.609375 273.25 444.511719 276.179688 447.882812 280.136719 C 450.546875 283.148438 452.636719 286.277344 454.09375 289.464844 C 455.492188 292.609375 456.203125 295.542969 456.203125 298.21875 C 456.203125 301.132812 455.179688 303.707031 453.011719 305.875 C 450.800781 308.019531 448.179688 309.101562 445.125 309.101562 C 439.367188 309.101562 435.601562 305.953125 433.886719 299.695312 C 431.914062 292.335938 427.222656 287.457031 419.730469 285.015625 L 419.730469 321.851562 C 427.144531 323.898438 432.980469 325.6875 437.296875 327.359375 C 441.695312 329.011719 445.578125 331.394531 448.96875 334.523438 C 452.636719 337.789062 455.414062 341.644531 457.464844 346.191406 C 459.417969 350.695312 460.421875 355.65625 460.421875 361.007812 C 460.421875 367.734375 458.785156 374.011719 455.691406 379.957031 C 452.496094 385.800781 447.804688 390.621094 441.671875 394.320312 C 435.5625 398.058594 428.1875 400.261719 419.730469 400.988281 L 419.730469 407.933594 C 419.730469 411.4375 419.414062 414.015625 418.707031 415.550781 C 418.035156 417.125 416.578125 417.871094 414.269531 417.871094 C 412.140625 417.871094 410.640625 417.261719 409.753906 415.964844 C 408.945312 414.703125 408.511719 412.65625 408.511719 409.921875 L 408.511719 401.148438 C 401.59375 400.339844 395.519531 398.765625 390.335938 396.285156 C 385.191406 393.808594 380.851562 390.699219 377.382812 387 C 373.933594 383.359375 371.351562 379.464844 369.675781 375.488281 C 368.078125 371.554688 367.191406 367.617188 367.191406 363.761719 C 367.191406 360.929688 368.351562 358.371094 370.5625 356.066406 C 372.769531 353.804688 375.53125 352.683594 378.84375 352.683594 C 381.542969 352.683594 383.769531 353.3125 385.625 354.554688 C 387.398438 355.792969 388.640625 357.523438 389.410156 359.785156 C 391.046875 364.648438 392.367188 368.328125 393.609375 370.921875 C 394.773438 373.5 396.527344 375.84375 398.929688 377.910156 C 401.414062 380.015625 404.511719 381.667969 408.511719 382.808594 L 408.511719 341.625 C 400.566406 339.421875 393.882812 336.980469 388.601562 334.304688 C 383.277344 331.609375 378.882812 327.792969 375.6875 322.835938 C 372.335938 317.875 370.699219 311.480469 370.699219 303.707031 C 370.699219 293.535156 373.933594 285.191406 380.417969 278.699219 C 386.925781 272.207031 396.269531 268.449219 408.511719 267.386719 L 408.511719 257.980469 C 408.511719 253.023438 410.367188 250.523438 414.054688 250.523438 C 417.859375 250.523438 419.730469 252.964844 419.730469 257.824219 Z M 408.511719 318.585938 L 408.511719 284.640625 C 403.542969 286.15625 399.640625 288.066406 396.902344 290.507812 C 394.0625 292.925781 392.640625 296.605469 392.640625 301.503906 C 392.640625 306.167969 394.0625 309.691406 396.585938 312.089844 C 399.1875 314.472656 403.128906 316.636719 408.511719 318.585938 Z M 419.730469 344.910156 L 419.730469 383.675781 C 425.722656 382.472656 430.316406 380.132812 433.609375 376.511719 C 436.84375 372.871094 438.480469 368.71875 438.480469 363.9375 C 438.480469 358.804688 436.882812 354.847656 433.6875 352.054688 C 430.59375 349.261719 425.882812 346.839844 419.730469 344.910156 Z M 419.730469 344.910156 "/></g><g style="fill:#000000;fill-opacity:1;"><g transform="translate(170.263252, 389.26909)"><path style="stroke:none" d="M 14.5625 -139.4375 C 14.5625 -149.28125 20.046875 -154.203125 31.015625 -154.203125 C 41.984375 -154.203125 47.46875 -149.28125 47.46875 -139.4375 C 47.46875 -134.75 46.097656 -131.097656 43.359375 -128.484375 C 40.617188 -125.878906 36.503906 -124.578125 31.015625 -124.578125 C 20.046875 -124.578125 14.5625 -129.53125 14.5625 -139.4375 Z M 46.078125 0 L 15.859375 0 L 15.859375 -110.796875 L 46.078125 -110.796875 Z M 46.078125 0 "/></g></g><g style="fill:#000000;fill-opacity:1;"><g transform="translate(232.199886, 389.26909)"><path style="stroke:none" d="M 118.140625 0 L 87.90625 0 L 87.90625 -64.71875 C 87.90625 -72.707031 86.484375 -78.703125 83.640625 -82.703125 C 80.804688 -86.703125 76.28125 -88.703125 70.0625 -88.703125 C 61.601562 -88.703125 55.488281 -85.875 51.71875 -80.21875 C 47.957031 -74.570312 46.078125 -65.207031 46.078125 -52.125 L 46.078125 0 L 15.859375 0 L 15.859375 -110.796875 L 38.953125 -110.796875 L 43.015625 -96.625 L 44.703125 -96.625 C 48.066406 -101.976562 52.703125 -106.023438 58.609375 -108.765625 C 64.523438 -111.503906 71.253906 -112.875 78.796875 -112.875 C 91.671875 -112.875 101.445312 -109.390625 108.125 -102.421875 C 114.800781 -95.453125 118.140625 -85.394531 118.140625 -72.25 Z M 118.140625 0 "/></g></g><g style="fill:#000000;fill-opacity:1;"><g transform="translate(365.595818, 389.26909)"><path style="stroke:none" d=""/></g></g><g style="fill:#000000;fill-opacity:1;"><g transform="translate(418.316271, 389.26909)"><path style="stroke:none" d=""/></g></g><g style="fill:#000000;fill-opacity:1;"><g transform="translate(471.037434, 389.26909)"><path style="stroke:none" d="M 62.53125 -22.09375 C 67.820312 -22.09375 74.164062 -23.25 81.5625 -25.5625 L 81.5625 -3.078125 C 74.03125 0.296875 64.78125 1.984375 53.8125 1.984375 C 41.71875 1.984375 32.910156 -1.070312 27.390625 -7.1875 C 21.878906 -13.300781 19.125 -22.46875 19.125 -34.6875 L 19.125 -88.109375 L 4.65625 -88.109375 L 4.65625 -100.890625 L 21.3125 -111 L 30.03125 -134.390625 L 49.359375 -134.390625 L 49.359375 -110.796875 L 80.375 -110.796875 L 80.375 -88.109375 L 49.359375 -88.109375 L 49.359375 -34.6875 C 49.359375 -30.394531 50.5625 -27.222656 52.96875 -25.171875 C 55.382812 -23.117188 58.570312 -22.09375 62.53125 -22.09375 Z M 62.53125 -22.09375 "/></g></g><g style="fill:#000000;fill-opacity:1;"><g transform="translate(559.136097, 389.26909)"><path style="stroke:none" d="M 86.21875 0 L 80.375 -15.0625 L 79.578125 -15.0625 C 74.492188 -8.65625 69.257812 -4.210938 63.875 -1.734375 C 58.488281 0.742188 51.46875 1.984375 42.8125 1.984375 C 32.175781 1.984375 23.800781 -1.050781 17.6875 -7.125 C 11.570312 -13.207031 8.515625 -21.863281 8.515625 -33.09375 C 8.515625 -44.863281 12.628906 -53.535156 20.859375 -59.109375 C 29.085938 -64.691406 41.492188 -67.785156 58.078125 -68.390625 L 77.296875 -68.984375 L 77.296875 -73.828125 C 77.296875 -85.066406 71.550781 -90.6875 60.0625 -90.6875 C 51.207031 -90.6875 40.800781 -88.007812 28.84375 -82.65625 L 18.828125 -103.0625 C 31.578125 -109.738281 45.71875 -113.078125 61.25 -113.078125 C 76.113281 -113.078125 87.507812 -109.835938 95.4375 -103.359375 C 103.363281 -96.890625 107.328125 -87.046875 107.328125 -73.828125 L 107.328125 0 Z M 77.296875 -51.34375 L 65.609375 -50.9375 C 56.816406 -50.675781 50.273438 -49.09375 45.984375 -46.1875 C 41.691406 -43.28125 39.546875 -38.851562 39.546875 -32.90625 C 39.546875 -24.382812 44.429688 -20.125 54.203125 -20.125 C 61.210938 -20.125 66.8125 -22.132812 71 -26.15625 C 75.195312 -30.1875 77.296875 -35.539062 77.296875 -42.21875 Z M 77.296875 -51.34375 "/></g></g><g style="fill:#000000;fill-opacity:1;"><g transform="translate(96.343772, 531.465991)"><path style="stroke:none" d="M 61.75 -21.703125 C 69.40625 -21.703125 75.015625 -23.898438 78.578125 -28.296875 C 82.148438 -32.691406 84.101562 -40.375 84.4375 -51.34375 L 84.4375 -55 C 84.4375 -66.894531 82.601562 -75.414062 78.9375 -80.5625 C 75.269531 -85.71875 69.375 -88.296875 61.25 -88.296875 C 47.039062 -88.296875 39.9375 -77.132812 39.9375 -54.8125 C 39.9375 -43.707031 41.703125 -35.410156 45.234375 -29.921875 C 48.773438 -24.441406 54.28125 -21.703125 61.75 -21.703125 Z M 50.9375 1.984375 C 37.851562 1.984375 27.613281 -3.050781 20.21875 -13.125 C 12.820312 -23.207031 9.125 -37.234375 9.125 -55.203125 C 9.125 -73.304688 12.90625 -87.441406 20.46875 -97.609375 C 28.03125 -107.785156 38.382812 -112.875 51.53125 -112.875 C 58.539062 -112.875 64.65625 -111.550781 69.875 -108.90625 C 75.09375 -106.269531 79.679688 -102.175781 83.640625 -96.625 L 84.4375 -96.625 L 87.109375 -110.796875 L 112.6875 -110.796875 L 112.6875 48.765625 L 82.359375 48.765625 L 82.359375 2.28125 C 82.359375 -1.75 82.785156 -7.300781 83.640625 -14.375 L 82.359375 -14.375 C 79.117188 -9.019531 74.820312 -4.953125 69.46875 -2.171875 C 64.125 0.597656 57.945312 1.984375 50.9375 1.984375 Z M 50.9375 1.984375 "/></g></g><g style="fill:#000000;fill-opacity:1;"><g transform="translate(224.775551, 531.465991)"><path style="stroke:none" d="M 94.34375 0 L 90.28125 -14.171875 L 88.703125 -14.171875 C 85.460938 -9.015625 80.867188 -5.03125 74.921875 -2.21875 C 68.972656 0.582031 62.203125 1.984375 54.609375 1.984375 C 41.585938 1.984375 31.773438 -1.5 25.171875 -8.46875 C 18.566406 -15.4375 15.265625 -25.460938 15.265625 -38.546875 L 15.265625 -110.796875 L 45.484375 -110.796875 L 45.484375 -46.078125 C 45.484375 -38.085938 46.90625 -32.09375 49.75 -28.09375 C 52.59375 -24.09375 57.117188 -22.09375 63.328125 -22.09375 C 71.785156 -22.09375 77.894531 -24.914062 81.65625 -30.5625 C 85.425781 -36.21875 87.3125 -45.585938 87.3125 -58.671875 L 87.3125 -110.796875 L 117.546875 -110.796875 L 117.546875 0 Z M 94.34375 0 "/></g></g><g style="fill:#000000;fill-opacity:1;"><g transform="translate(358.164341, 531.465991)"><path style="stroke:none" d=""/></g></g><g style="fill:#000000;fill-opacity:1;"><g transform="translate(410.884794, 531.465991)"><path style="stroke:none" d=""/></g></g><g style="fill:#000000;fill-opacity:1;"><g transform="translate(463.605957, 531.465991)"><path style="stroke:none" d="M 62.53125 -22.09375 C 67.820312 -22.09375 74.164062 -23.25 81.5625 -25.5625 L 81.5625 -3.078125 C 74.03125 0.296875 64.78125 1.984375 53.8125 1.984375 C 41.71875 1.984375 32.910156 -1.070312 27.390625 -7.1875 C 21.878906 -13.300781 19.125 -22.46875 19.125 -34.6875 L 19.125 -88.109375 L 4.65625 -88.109375 L 4.65625 -100.890625 L 21.3125 -111 L 30.03125 -134.390625 L 49.359375 -134.390625 L 49.359375 -110.796875 L 80.375 -110.796875 L 80.375 -88.109375 L 49.359375 -88.109375 L 49.359375 -34.6875 C 49.359375 -30.394531 50.5625 -27.222656 52.96875 -25.171875 C 55.382812 -23.117188 58.570312 -22.09375 62.53125 -22.09375 Z M 62.53125 -22.09375 "/></g></g><g style="fill:#000000;fill-opacity:1;"><g transform="translate(551.70462, 531.465991)"><path style="stroke:none" d="M 61.75 -91.375 C 55.332031 -91.375 50.304688 -89.34375 46.671875 -85.28125 C 43.046875 -81.21875 40.96875 -75.453125 40.4375 -67.984375 L 82.859375 -67.984375 C 82.722656 -75.453125 80.769531 -81.21875 77 -85.28125 C 73.238281 -89.34375 68.15625 -91.375 61.75 -91.375 Z M 66 1.984375 C 48.164062 1.984375 34.226562 -2.9375 24.1875 -12.78125 C 14.144531 -22.625 9.125 -36.566406 9.125 -54.609375 C 9.125 -73.171875 13.765625 -87.519531 23.046875 -97.65625 C 32.328125 -107.800781 45.160156 -112.875 61.546875 -112.875 C 77.203125 -112.875 89.390625 -108.414062 98.109375 -99.5 C 106.835938 -90.582031 111.203125 -78.257812 111.203125 -62.53125 L 111.203125 -47.875 L 39.734375 -47.875 C 40.066406 -39.28125 42.613281 -32.570312 47.375 -27.75 C 52.132812 -22.925781 58.804688 -20.515625 67.390625 -20.515625 C 74.066406 -20.515625 80.375 -21.207031 86.3125 -22.59375 C 92.257812 -23.976562 98.472656 -26.191406 104.953125 -29.234375 L 104.953125 -5.84375 C 99.671875 -3.207031 94.019531 -1.242188 88 0.046875 C 81.988281 1.335938 74.65625 1.984375 66 1.984375 Z M 66 1.984375 "/></g></g><g clip-rule="nonzero" clip-path="url(#d67cb30b37)"><path style=" stroke:none;fill-rule:nonzero;fill:#231f20;fill-opacity:1;" d="M 409.035156 521.566406 C 386.933594 521.566406 368.953125 503.585938 368.953125 481.484375 C 368.953125 459.382812 386.933594 441.402344 409.035156 441.402344 C 431.136719 441.402344 449.117188 459.382812 449.117188 481.484375 C 449.117188 503.585938 431.136719 521.566406 409.035156 521.566406 Z M 409.035156 428.609375 C 379.878906 428.609375 356.160156 452.328125 356.160156 481.484375 C 356.160156 510.636719 379.878906 534.359375 409.035156 534.359375 C 438.191406 534.359375 461.910156 510.636719 461.910156 481.484375 C 461.910156 452.328125 438.191406 428.609375 409.035156 428.609375 "/></g><path style=" stroke:none;fill-rule:nonzero;fill:#231f20;fill-opacity:1;" d="M 424.796875 489.371094 L 412.234375 482.402344 L 412.234375 458.257812 C 412.234375 456.140625 410.515625 454.421875 408.394531 454.421875 C 406.277344 454.421875 404.558594 456.140625 404.558594 458.257812 L 404.558594 484.613281 C 404.558594 484.617188 404.558594 484.625 404.558594 484.632812 L 404.558594 484.660156 C 404.558594 484.6875 404.5625 484.714844 404.5625 484.742188 C 404.566406 484.835938 404.570312 484.929688 404.578125 485.023438 C 404.582031 485.082031 404.59375 485.140625 404.601562 485.199219 C 404.609375 485.261719 404.617188 485.324219 404.628906 485.386719 C 404.644531 485.460938 404.660156 485.53125 404.679688 485.597656 C 404.691406 485.648438 404.703125 485.695312 404.71875 485.746094 C 404.738281 485.816406 404.765625 485.890625 404.789062 485.960938 C 404.808594 486.007812 404.820312 486.054688 404.839844 486.097656 C 404.867188 486.164062 404.898438 486.226562 404.929688 486.292969 C 404.949219 486.339844 404.972656 486.390625 405 486.441406 C 405.027344 486.496094 405.058594 486.550781 405.089844 486.601562 C 405.125 486.65625 405.15625 486.710938 405.191406 486.765625 C 405.21875 486.8125 405.25 486.851562 405.28125 486.894531 C 405.324219 486.953125 405.367188 487.011719 405.414062 487.070312 C 405.441406 487.105469 405.476562 487.140625 405.503906 487.175781 C 405.554688 487.234375 405.605469 487.292969 405.660156 487.347656 C 405.695312 487.382812 405.734375 487.414062 405.765625 487.449219 C 405.820312 487.5 405.875 487.550781 405.929688 487.597656 C 405.980469 487.640625 406.03125 487.675781 406.082031 487.714844 C 406.128906 487.75 406.175781 487.785156 406.226562 487.820312 C 406.300781 487.875 406.382812 487.921875 406.464844 487.96875 C 406.488281 487.984375 406.507812 488 406.535156 488.015625 L 406.554688 488.023438 C 406.5625 488.027344 406.566406 488.035156 406.574219 488.039062 L 421.070312 496.082031 C 421.660156 496.410156 422.300781 496.5625 422.929688 496.5625 C 424.277344 496.5625 425.585938 495.851562 426.289062 494.589844 C 427.316406 492.734375 426.648438 490.398438 424.796875 489.371094 "/></g></svg>